<svg width="485" height="350" viewBox="0 0 485 350" fill="none" xmlns="http://www.w3.org/2000/svg">
<path d="M435.3 318.325H359.7C350.075 318.325 342.2 310.625 342.2 300.825V225.225C342.2 215.6 349.9 207.725 359.7 207.725H435.3C444.925 207.725 452.8 215.425 452.8 225.225V300.825C452.625 310.45 444.925 318.325 435.3 318.325Z" fill="#EF9922"/>
<path d="M435.3 320.075H359.7C349.025 320.075 340.625 311.325 340.625 301V225.225C340.625 214.9 349.025 206.15 359.7 206.15H435.3C445.975 206.15 454.375 214.9 454.375 225.225V300.825C454.375 311.5 445.8 320.075 435.3 320.075ZM359.7 209.475C350.95 209.475 343.95 216.475 343.95 225.225V300.825C343.95 309.575 350.95 316.575 359.7 316.575H435.3C444.05 316.575 451.05 309.575 451.05 300.825V225.225C451.05 216.475 444.05 209.475 435.3 209.475H359.7Z" fill="black"/>
<path d="M350.775 239.575C350.075 239.575 349.55 239.05 349.55 238.35V228.025C349.55 221.025 355.15 215.25 362.325 215.25H395.925C396.625 215.25 397.15 215.775 397.15 216.475C397.15 217.175 396.625 217.7 395.925 217.7H362.325C356.725 217.7 352 222.425 352 228.025V238.35C352 238.875 351.475 239.575 350.775 239.575Z" fill="black"/>
<path d="M377.375 311.15H362.325C355.325 311.15 349.55 305.55 349.55 298.375V249.375C349.55 248.675 350.075 248.15 350.775 248.15C351.475 248.15 352 248.675 352 249.375V298.025C352 303.625 356.725 308.35 362.325 308.35H377.375C378.075 308.35 378.6 308.875 378.6 309.575C378.6 310.45 378.075 311.15 377.375 311.15Z" fill="black"/>
<path d="M432.675 311.15H385.425C384.725 311.15 384.2 310.625 384.2 309.925C384.2 309.225 384.725 308.7 385.425 308.7H432.675C438.275 308.7 443 303.975 443 298.375V286.125C443 285.425 443.525 284.9 444.225 284.9C444.925 284.9 445.45 285.425 445.45 286.125V298.375C445.625 305.375 439.675 311.15 432.675 311.15Z" fill="black"/>
<path d="M444.4 278.075C443.7 278.075 443.175 277.55 443.175 276.85V227.85C443.175 222.25 438.45 217.525 432.85 217.525H426.2C425.5 217.525 424.975 217 424.975 216.3C424.975 215.6 425.5 215.075 426.2 215.075H432.5C439.5 215.075 445.275 220.675 445.275 227.85V276.85C445.625 277.2 444.925 278.075 444.4 278.075Z" fill="black"/>
<path d="M417.8 217.525H402.75C402.05 217.525 401.525 217 401.525 216.3C401.525 215.6 402.05 215.075 402.75 215.075H417.8C418.5 215.075 419.025 215.6 419.025 216.3C419.2 217 418.5 217.525 417.8 217.525Z" fill="black"/>
<path d="M368.45 277.725C368.45 277.55 368.45 277.55 368.45 277.2L379.475 241.15C380 239.75 381.575 239.05 383.325 239.05C384.9 239.05 386.65 239.75 387.175 241.15L398.2 277.2C398.2 277.375 398.2 277.375 398.2 277.725C398.2 279.125 396.1 280 394.35 280C393.475 280 392.775 279.825 392.25 278.775L389.975 270.725H376.325L374.05 278.775C373.875 279.65 373.175 280 371.95 280C370.375 280.175 368.45 279.125 368.45 277.725ZM388.75 266.175L383.325 247.1L377.725 266.175H388.75Z" fill="white" stroke="black" stroke-width="2" stroke-miterlimit="5" stroke-linecap="round" stroke-linejoin="round"/>
<path d="M407.825 278.25C407.825 279.125 406.425 280.175 404.85 280.175C403.275 280.175 402.05 279.3 402.05 278.25V255.675C402.05 254.45 403.275 253.75 404.85 253.75C406.25 253.75 407.475 254.45 407.475 255.675V257.775C408.7 255.675 411.325 253.575 415 253.575C420.25 253.575 424.625 258.475 424.625 264.6V278.425C424.625 279.65 423.225 280.35 421.65 280.35C420.25 280.35 418.85 279.65 418.85 278.425V264.6C418.85 261.8 416.225 258.65 413.25 258.65C410.625 258.65 407.825 260.75 407.825 264.6V278.25Z" fill="white" stroke="black" stroke-width="2" stroke-miterlimit="5" stroke-linecap="round" stroke-linejoin="round"/>
<path d="M277.362 318.362H209.112C197.562 318.362 188.112 308.912 188.112 297.362V229.112C188.112 217.562 197.562 208.112 209.112 208.112H277.362C288.912 208.112 298.362 217.562 298.362 229.112V297.362C298.362 308.912 288.912 318.362 277.362 318.362Z" fill="#A2A2CC"/>
<path d="M277.362 320.112H209.112C196.547 320.112 186.362 309.927 186.362 297.362V229.112C186.362 216.547 196.547 206.362 209.112 206.362H277.362C289.927 206.362 300.112 216.547 300.112 229.112V297.362C300.112 309.927 289.927 320.112 277.362 320.112ZM189.862 229.112V297.362C189.862 307.993 198.48 316.612 209.112 316.612H277.362C287.993 316.612 296.612 307.993 296.612 297.362V229.112C296.612 218.48 287.993 209.862 277.362 209.862H209.112C198.48 209.862 189.862 218.48 189.862 229.112Z" fill="#1F212B"/>
<path d="M272.395 311.362H214.076C203.603 311.362 195.112 302.871 195.112 292.397V234.076C195.112 223.603 203.603 215.112 214.076 215.112H272.987C273.47 215.112 273.862 215.504 273.862 215.987C273.862 216.47 273.47 216.862 272.987 216.862H214.076C204.569 216.862 196.862 224.569 196.862 234.076V292.395C196.862 301.903 204.57 309.612 214.078 309.612H272.395C281.903 309.612 289.612 301.903 289.612 292.395V259.737C289.612 259.254 290.004 258.862 290.487 258.862C290.97 258.862 291.362 259.254 291.362 259.737V292.395C291.362 302.871 282.871 311.362 272.395 311.362ZM290.487 254.625C290.004 254.625 289.612 254.233 289.612 253.75V246.75C289.612 246.267 290.004 245.875 290.487 245.875C290.97 245.875 291.362 246.267 291.362 246.75V253.75C291.362 254.235 290.971 254.625 290.487 254.625ZM290.487 244.125C290.004 244.125 289.612 243.733 289.612 243.25V239.75C289.612 239.267 290.004 238.875 290.487 238.875C290.97 238.875 291.362 239.267 291.362 239.75V243.25C291.362 243.735 290.971 244.125 290.487 244.125Z" fill="#1F212B"/>
<path d="M244.359 253.806C244.359 255.822 243.916 257.638 243.034 259.255C242.152 260.872 240.923 262.248 239.35 263.38C237.775 264.514 235.917 265.386 233.773 265.995C231.631 266.605 229.321 266.908 226.843 266.908H223.946V283.477H218.15V241.521H228.294C230.562 241.521 232.672 241.773 234.625 242.277C236.578 242.781 238.279 243.549 239.728 244.575C241.177 245.605 242.311 246.885 243.13 248.418C243.949 249.954 244.359 251.748 244.359 253.806ZM238.563 253.743C238.563 252.357 238.29 251.191 237.744 250.246C237.198 249.301 236.452 248.526 235.507 247.915C234.562 247.306 233.449 246.865 232.168 246.592C230.887 246.321 229.533 246.185 228.106 246.185H223.948V262.25H227.035C228.715 262.25 230.259 262.061 231.666 261.683C233.074 261.305 234.291 260.748 235.321 260.013C236.349 259.278 237.149 258.386 237.714 257.336C238.279 256.284 238.563 255.087 238.563 253.743Z" fill="#FDFCEE"/>
<path d="M223.948 284.354H218.152C217.669 284.354 217.277 283.962 217.277 283.479V241.521C217.277 241.038 217.669 240.646 218.152 240.646H228.295C230.628 240.646 232.833 240.908 234.845 241.428C236.889 241.957 238.703 242.776 240.236 243.861C241.79 244.967 243.023 246.361 243.903 248.005C244.789 249.662 245.237 251.613 245.237 253.804C245.237 255.957 244.756 257.931 243.805 259.674C242.866 261.399 241.539 262.885 239.864 264.091C238.214 265.281 236.246 266.203 234.016 266.836C231.809 267.463 229.396 267.783 226.846 267.783H224.825V283.477C224.823 283.962 224.431 284.354 223.948 284.354ZM219.025 282.604H223.071V266.91C223.071 266.427 223.463 266.035 223.946 266.035H226.843C229.23 266.035 231.48 265.739 233.533 265.155C235.566 264.577 237.352 263.741 238.837 262.671C240.297 261.62 241.45 260.33 242.266 258.837C243.072 257.355 243.482 255.664 243.482 253.806C243.482 251.905 243.102 250.231 242.355 248.831C241.604 247.425 240.549 246.235 239.217 245.289C237.861 244.328 236.24 243.598 234.403 243.126C232.532 242.643 230.476 242.398 228.29 242.398H219.022V282.604H219.025ZM227.033 263.123H223.946C223.463 263.123 223.071 262.731 223.071 262.248V246.183C223.071 245.7 223.463 245.308 223.946 245.308H228.104C229.583 245.308 231.01 245.451 232.348 245.735C233.729 246.029 234.949 246.514 235.979 247.177C237.038 247.863 237.887 248.745 238.5 249.807C239.121 250.883 239.436 252.206 239.436 253.741C239.436 255.227 239.114 256.574 238.478 257.749C237.855 258.907 236.963 259.908 235.826 260.72C234.711 261.515 233.386 262.122 231.888 262.524C230.415 262.922 228.782 263.123 227.033 263.123ZM224.823 261.373H227.035C228.628 261.373 230.11 261.191 231.438 260.836C232.735 260.487 233.871 259.969 234.814 259.297C235.729 258.643 236.447 257.841 236.944 256.917C237.439 256.002 237.691 254.933 237.691 253.743C237.691 252.52 237.455 251.491 236.989 250.684C236.512 249.854 235.871 249.189 235.036 248.65C234.188 248.104 233.16 247.698 231.989 247.448C230.773 247.191 229.468 247.058 228.11 247.058H224.827V261.373H224.823Z" fill="#1F212B"/>
<path d="M266.85 257.901H265.4C263.174 257.901 261.253 258.321 259.636 259.161C258.019 260.001 256.644 261.368 255.511 263.258V283.481H249.841V253.241H255.259V259.037C256.141 257.021 257.307 255.488 258.756 254.438C260.205 253.388 262.126 252.863 264.52 252.863C265.442 252.863 266.221 252.97 266.851 253.178L266.85 257.901Z" fill="#FDFCEE"/>
<path d="M255.511 284.354H249.841C249.358 284.354 248.966 283.962 248.966 283.479V253.239C248.966 252.756 249.358 252.364 249.841 252.364H255.259C255.742 252.364 256.134 252.756 256.134 253.239V255.799C256.761 254.984 257.466 254.291 258.243 253.727C259.839 252.572 261.951 251.986 264.52 251.986C265.53 251.986 266.407 252.107 267.126 252.345C267.483 252.462 267.726 252.798 267.726 253.176V257.901C267.726 258.384 267.334 258.776 266.851 258.776H265.402C263.329 258.776 261.524 259.168 260.042 259.936C258.635 260.668 257.406 261.868 256.388 263.503V283.479C256.386 283.962 255.994 284.354 255.511 284.354ZM250.716 282.604H254.636V263.256C254.636 263.097 254.678 262.941 254.76 262.806C255.971 260.785 257.476 259.296 259.233 258.384C260.969 257.481 263.045 257.026 265.4 257.026H265.975V253.855C265.551 253.774 265.063 253.736 264.518 253.736C262.326 253.736 260.558 254.21 259.267 255.146C257.953 256.098 256.874 257.523 256.059 259.387C255.891 259.766 255.476 259.982 255.077 259.892C254.673 259.808 254.382 259.45 254.382 259.037V254.116H250.714L250.716 282.604Z" fill="#1F212B"/>
<path d="M121.219 318.362H52.969C41.419 318.362 31.969 308.912 31.969 297.362V229.112C31.969 217.562 41.419 208.112 52.969 208.112H121.219C132.769 208.112 142.219 217.562 142.219 229.112V297.362C142.219 308.912 132.769 318.362 121.219 318.362Z" fill="#BEA9B2"/>
<path d="M122.094 318.362H53.844C41.762 318.362 31.969 308.569 31.969 296.487V228.237C31.969 216.155 41.762 206.362 53.844 206.362H122.094C134.176 206.362 143.969 216.155 143.969 228.237V296.487C143.969 308.569 134.174 318.362 122.094 318.362ZM33.719 228.237V296.487C33.719 307.601 42.7297 316.612 53.844 316.612H122.094C133.208 316.612 142.219 307.601 142.219 296.487V228.237C142.219 217.122 133.208 208.112 122.094 208.112H53.844C42.728 208.112 33.719 217.122 33.719 228.237Z" fill="#1F212B"/>
<path d="M116.253 311.362H57.9337C47.46 311.362 38.969 302.871 38.969 292.397V234.076C38.969 223.603 47.46 215.112 57.9337 215.112H116.844C117.327 215.112 117.719 215.504 117.719 215.987C117.719 216.47 117.327 216.862 116.844 216.862H57.9337C48.426 216.862 40.719 224.569 40.719 234.076V292.395C40.719 301.903 48.4277 309.612 57.9355 309.612H116.254C125.762 309.612 133.469 301.905 133.469 292.397V259.737C133.469 259.254 133.861 258.862 134.344 258.862C134.827 258.862 135.219 259.254 135.219 259.737V292.395C135.219 302.871 126.726 311.362 116.253 311.362ZM134.344 254.625C133.861 254.625 133.469 254.233 133.469 253.75V246.75C133.469 246.267 133.861 245.875 134.344 245.875C134.827 245.875 135.219 246.267 135.219 246.75V253.75C135.219 254.235 134.827 254.625 134.344 254.625ZM134.344 244.125C133.861 244.125 133.469 243.733 133.469 243.25V239.75C133.469 239.267 133.861 238.875 134.344 238.875C134.827 238.875 135.219 239.267 135.219 239.75V243.25C135.219 243.735 134.827 244.125 134.344 244.125Z" fill="#1F212B"/>
<path d="M92.4472 283.164H86.5252L82.6823 273.021H63.0875L59.3075 283.164H53.3855L70.0805 241.206H75.7505L92.4472 283.164ZM64.8515 268.359H80.9813L72.9172 246.498L64.8515 268.359Z" fill="#FDFCEE"/>
<path d="M92.4455 284.039H86.5235C86.1595 284.039 85.834 283.813 85.7045 283.474L82.075 273.896H63.6965L60.1282 283.47C60.0005 283.812 59.6732 284.039 59.3075 284.039H53.3855C53.095 284.039 52.8255 283.896 52.661 283.654C52.4982 283.414 52.4667 283.108 52.5717 282.84L69.2667 240.882C69.3997 240.55 69.7217 240.331 70.0805 240.331H75.7505C76.1092 240.331 76.4312 240.55 76.5642 240.882L93.2592 282.84C93.366 283.108 93.3327 283.414 93.17 283.654C93.0072 283.896 92.736 284.039 92.4455 284.039ZM87.129 282.289H91.1557L75.1572 242.081H70.6737L54.6752 282.289H58.6985L62.2667 272.715C62.3945 272.374 62.7217 272.146 63.0875 272.146H82.6805C83.0445 272.146 83.37 272.372 83.4995 272.711L87.129 282.289ZM80.9812 269.234H64.8515C64.5662 269.234 64.2985 269.094 64.134 268.86C63.9695 268.623 63.9327 268.324 64.0307 268.056L72.0947 246.195C72.3485 245.508 73.4825 245.508 73.7362 246.195L81.8002 268.056C81.9 268.324 81.8615 268.623 81.697 268.86C81.5342 269.094 81.2665 269.234 80.9812 269.234ZM66.108 267.484H79.7247L72.9155 249.025L66.108 267.484Z" fill="#1F212B"/>
<path d="M109.96 252.294C111.892 252.294 113.58 252.609 115.029 253.239C116.478 253.867 117.696 254.73 118.683 255.822C119.67 256.914 120.405 258.205 120.89 259.696C121.371 261.189 121.613 262.796 121.613 264.516C121.613 266.238 121.403 267.941 120.985 269.619H101.896C101.936 271.091 102.149 272.414 102.526 273.59C102.902 274.766 103.479 275.784 104.256 276.645C105.033 277.506 106.043 278.168 107.282 278.63C108.521 279.093 110.023 279.323 111.787 279.323C113.425 279.323 114.966 279.155 116.417 278.819C117.866 278.484 119.2 278.063 120.418 277.559L121.174 281.78C119.83 282.41 118.265 282.905 116.48 283.26C114.693 283.617 112.858 283.797 110.968 283.797C108.449 283.797 106.253 283.388 104.384 282.569C102.515 281.75 100.972 280.637 99.7535 279.23C98.5355 277.823 97.6203 276.174 97.013 274.284C96.4058 272.394 96.1013 270.359 96.1013 268.173C96.1013 265.991 96.4163 263.931 97.0463 262.001C97.6745 260.069 98.5898 258.379 99.785 256.93C100.984 255.481 102.442 254.347 104.164 253.528C105.886 252.702 107.818 252.294 109.96 252.294ZM109.771 256.515C108.553 256.515 107.48 256.746 106.558 257.208C105.634 257.672 104.836 258.3 104.164 259.098C103.492 259.896 102.967 260.83 102.59 261.901C102.211 262.972 101.98 264.098 101.897 265.274H116.135C116.261 264.098 116.24 262.974 116.072 261.901C115.904 260.832 115.57 259.896 115.066 259.098C114.562 258.3 113.867 257.672 112.987 257.208C112.102 256.746 111.031 256.515 109.771 256.515Z" fill="#FDFCEE"/>
<path d="M110.966 284.669C108.336 284.669 106.003 284.231 104.03 283.367C102.049 282.499 100.387 281.298 99.092 279.799C97.8023 278.308 96.8205 276.544 96.18 274.549C95.5465 272.58 95.2245 270.433 95.2245 268.168C95.2245 265.9 95.557 263.732 96.2115 261.723C96.8713 259.698 97.8477 257.894 99.1077 256.364C100.383 254.823 101.955 253.599 103.785 252.73C105.618 251.858 107.693 251.417 109.958 251.417C112.002 251.417 113.825 251.758 115.378 252.436C116.935 253.111 118.265 254.053 119.333 255.234C120.4 256.415 121.201 257.824 121.721 259.425C122.229 260.997 122.488 262.71 122.488 264.514C122.488 266.299 122.267 268.088 121.833 269.829C121.735 270.219 121.385 270.492 120.985 270.492H102.82C102.904 271.518 103.084 272.466 103.359 273.318C103.696 274.374 104.218 275.294 104.907 276.055C105.586 276.808 106.488 277.396 107.588 277.805C108.719 278.229 110.131 278.442 111.786 278.442C113.353 278.442 114.842 278.28 116.218 277.961C117.611 277.639 118.909 277.231 120.081 276.747C120.328 276.645 120.603 276.659 120.838 276.787C121.07 276.913 121.233 277.139 121.279 277.401L122.035 281.622C122.105 282.012 121.903 282.399 121.546 282.567C120.143 283.227 118.498 283.747 116.651 284.114C114.816 284.483 112.901 284.669 110.966 284.669ZM109.959 253.169C107.956 253.169 106.132 253.554 104.538 254.31C102.94 255.071 101.568 256.137 100.459 257.481C99.3352 258.839 98.4673 260.449 97.8758 262.267C97.2773 264.099 96.9727 266.086 96.9727 268.168C96.9727 270.251 97.265 272.216 97.8425 274.011C98.4112 275.781 99.2758 277.342 100.413 278.652C101.539 279.954 102.991 281.001 104.732 281.762C106.482 282.529 108.579 282.917 110.966 282.917C112.786 282.917 114.583 282.742 116.308 282.397C117.749 282.11 119.051 281.725 120.19 281.253L119.742 278.752C118.76 279.106 117.712 279.412 116.613 279.666C115.11 280.014 113.486 280.192 111.786 280.192C109.921 280.192 108.302 279.94 106.976 279.445C105.611 278.936 104.477 278.189 103.607 277.226C102.751 276.278 102.107 275.144 101.693 273.852C101.29 272.596 101.062 271.18 101.019 269.638C101.012 269.402 101.103 269.173 101.267 269.005C101.432 268.837 101.659 268.74 101.894 268.74H120.288C120.587 267.347 120.738 265.93 120.738 264.512C120.738 262.89 120.508 261.359 120.057 259.961C119.614 258.599 118.933 257.4 118.034 256.405C117.136 255.411 116.009 254.616 114.681 254.039C113.351 253.463 111.762 253.169 109.959 253.169ZM116.132 266.147H101.894C101.65 266.147 101.42 266.045 101.253 265.869C101.087 265.692 101.003 265.452 101.021 265.211C101.11 263.958 101.358 262.747 101.763 261.607C102.174 260.444 102.755 259.408 103.492 258.533C104.237 257.649 105.135 256.94 106.164 256.424C108.281 255.367 111.414 255.4 113.386 256.431C114.404 256.966 115.216 257.707 115.801 258.631C116.366 259.525 116.746 260.578 116.932 261.765C117.112 262.911 117.133 264.124 117 265.366C116.954 265.811 116.58 266.147 116.132 266.147ZM102.869 264.397H115.325C115.362 263.581 115.323 262.79 115.206 262.034C115.057 261.086 114.762 260.255 114.324 259.563C113.901 258.893 113.33 258.375 112.578 257.981C111.101 257.211 108.566 257.182 106.949 257.99C106.136 258.398 105.423 258.961 104.834 259.661C104.233 260.374 103.756 261.226 103.415 262.19C103.164 262.897 102.982 263.636 102.869 264.397Z" fill="#1F212B"/>
<path d="M121.219 320.112H52.969C40.425 320.112 30.219 309.906 30.219 297.362V229.112C30.219 216.568 40.425 206.362 52.969 206.362H121.219C133.763 206.362 143.969 216.568 143.969 229.112V297.362C143.969 309.906 133.763 320.112 121.219 320.112ZM52.969 209.862C42.3552 209.862 33.719 218.498 33.719 229.112V297.362C33.719 307.975 42.3552 316.612 52.969 316.612H121.219C131.833 316.612 140.469 307.975 140.469 297.362V229.112C140.469 218.498 131.833 209.862 121.219 209.862H52.969Z" fill="#1F212B"/>
<path d="M432.432 143.362H364.182C352.632 143.362 343.182 133.912 343.182 122.362V54.1117C343.182 42.5617 352.632 33.1117 364.182 33.1117H432.432C443.982 33.1117 453.432 42.5617 453.432 54.1117V122.362C453.432 133.912 443.982 143.362 432.432 143.362Z" fill="#F27E97"/>
<path d="M432.432 145.112H364.182C351.617 145.112 341.432 134.927 341.432 122.362V54.1117C341.432 41.5467 351.617 31.3617 364.182 31.3617H432.432C444.997 31.3617 455.182 41.5467 455.182 54.1117V122.362C455.182 134.927 444.995 145.112 432.432 145.112ZM344.932 54.1117V122.362C344.932 132.993 353.55 141.612 364.182 141.612H432.432C443.063 141.612 451.682 132.993 451.682 122.362V54.1117C451.682 43.4804 443.063 34.8617 432.432 34.8617H364.182C353.549 34.8617 344.932 43.4804 344.932 54.1117Z" fill="#1F212B"/>
<path d="M427.465 136.362H369.146C358.673 136.362 350.182 127.871 350.182 117.397V59.0764C350.182 48.6027 358.673 40.1117 369.146 40.1117H428.057C428.54 40.1117 428.932 40.5037 428.932 40.9867C428.932 41.4697 428.54 41.8617 428.057 41.8617H369.146C359.639 41.8617 351.932 49.5687 351.932 59.0764V117.395C351.932 126.903 359.64 134.612 369.148 134.612H427.467C436.975 134.612 444.682 126.905 444.682 117.397V84.7367C444.682 84.2537 445.074 83.8617 445.557 83.8617C446.04 83.8617 446.432 84.2537 446.432 84.7367V117.395C446.432 127.871 437.939 136.362 427.465 136.362ZM445.557 79.6249C445.074 79.6249 444.682 79.2329 444.682 78.7499V71.7499C444.682 71.2669 445.074 70.8749 445.557 70.8749C446.04 70.8749 446.432 71.2669 446.432 71.7499V78.7499C446.432 79.2347 446.04 79.6249 445.557 79.6249ZM445.557 69.1249C445.074 69.1249 444.682 68.7329 444.682 68.2499V64.7499C444.682 64.2669 445.074 63.8749 445.557 63.8749C446.04 63.8749 446.432 64.2669 446.432 64.7499V68.2499C446.432 68.7347 446.04 69.1249 445.557 69.1249Z" fill="#1F212B"/>
<path d="M382.947 109.424H377.151V67.4659H382.947V109.424Z" fill="#FDFCEE"/>
<path d="M382.947 110.299H377.151C376.668 110.299 376.276 109.907 376.276 109.424V67.4659C376.276 66.9829 376.668 66.5909 377.151 66.5909H382.947C383.43 66.5909 383.822 66.9829 383.822 67.4659V109.424C383.822 109.907 383.432 110.299 382.947 110.299ZM378.026 108.549H382.072V68.3409H378.026V108.549Z" fill="#1F212B"/>
<path d="M417.849 109.424H412.494V105.266C411.36 106.612 409.995 107.744 408.399 108.668C406.803 109.59 404.871 110.054 402.603 110.054C400.839 110.054 399.243 109.674 397.815 108.918C396.387 108.159 395.148 107.088 394.098 105.698C393.048 104.311 392.239 102.669 391.672 100.776C391.105 98.8803 390.822 96.7995 390.822 94.5263C390.822 92.0028 391.21 89.74 391.987 87.7398C392.764 85.7413 393.846 84.0578 395.232 82.6893C396.618 81.3225 398.245 80.2795 400.114 79.5655C401.982 78.8498 404.01 78.4928 406.194 78.4928C407.412 78.4928 408.493 78.568 409.438 78.7168C410.383 78.8655 411.297 79.0668 412.179 79.324V64.9478H417.849V109.424ZM404.178 105.455C405.984 105.455 407.559 105.016 408.903 104.136C410.247 103.255 411.339 102.314 412.179 101.308V83.9073C411.465 83.6133 410.646 83.405 409.722 83.279C408.798 83.1548 407.832 83.0918 406.824 83.0918C403.674 83.0918 401.164 84.0753 399.295 86.0458C397.426 88.0145 396.492 90.8408 396.492 94.5263C396.492 97.8373 397.111 100.485 398.35 102.475C399.589 104.461 401.532 105.455 404.178 105.455Z" fill="#FDFCEE"/>
<path d="M402.603 110.929C400.702 110.929 398.954 110.513 397.405 109.69C395.867 108.873 394.52 107.707 393.4 106.227C392.294 104.764 391.429 103.014 390.834 101.026C390.246 99.057 389.947 96.8695 389.947 94.5245C389.947 91.9013 390.358 89.5125 391.172 87.4195C391.989 85.3178 393.148 83.5153 394.616 82.0645C396.084 80.6155 397.829 79.499 399.801 78.7465C401.758 77.9958 403.908 77.616 406.192 77.616C407.447 77.616 408.584 77.6948 409.573 77.8505C410.159 77.9433 410.739 78.0553 411.302 78.1883V64.946C411.302 64.463 411.694 64.071 412.177 64.071H417.847C418.33 64.071 418.722 64.463 418.722 64.946V109.424C418.722 109.907 418.33 110.299 417.847 110.299H412.492C412.009 110.299 411.617 109.907 411.617 109.424V107.419C410.777 108.169 409.846 108.84 408.835 109.426C407.111 110.423 405.014 110.929 402.603 110.929ZM406.194 79.366C404.125 79.366 402.185 79.7073 400.428 80.381C398.681 81.0478 397.141 82.033 395.846 83.3123C394.555 84.588 393.531 86.184 392.803 88.0565C392.07 89.943 391.697 92.1183 391.697 94.5245C391.697 96.6998 391.97 98.7175 392.511 100.524C393.046 102.31 393.814 103.873 394.796 105.17C395.76 106.447 396.914 107.45 398.224 108.145C399.518 108.831 400.991 109.179 402.601 109.179C404.701 109.179 406.504 108.752 407.96 107.91C409.461 107.041 410.761 105.961 411.824 104.701C412.063 104.419 412.45 104.316 412.793 104.444C413.138 104.57 413.367 104.899 413.367 105.266V108.549H416.972V65.821H413.052V79.3223C413.052 79.597 412.923 79.8578 412.702 80.0205C412.48 80.1868 412.193 80.234 411.932 80.1623C411.094 79.9173 410.208 79.7213 409.3 79.5795C408.402 79.4378 407.358 79.366 406.194 79.366ZM404.178 106.33C401.222 106.33 399.01 105.187 397.608 102.935C396.287 100.816 395.617 97.986 395.617 94.5228C395.617 90.622 396.641 87.5665 398.66 85.4403C400.692 83.3 403.438 82.215 406.824 82.215C407.862 82.215 408.877 82.2815 409.839 82.411C410.838 82.5475 411.736 82.7785 412.511 83.0988C412.839 83.2318 413.054 83.552 413.054 83.9073V101.308C413.054 101.512 412.982 101.71 412.851 101.868C411.96 102.933 410.793 103.945 409.382 104.867C407.9 105.838 406.148 106.33 404.178 106.33ZM406.824 83.965C403.896 83.965 401.642 84.8418 399.931 86.6443C398.23 88.4363 397.367 91.0858 397.367 94.5228C397.367 97.6518 397.948 100.172 399.092 102.008C400.17 103.738 401.833 104.58 404.176 104.58C405.8 104.58 407.23 104.183 408.422 103.404C409.58 102.645 410.548 101.833 411.302 100.982V84.518C410.791 84.3535 410.222 84.2293 409.601 84.1435C408.719 84.0245 407.783 83.965 406.824 83.965Z" fill="#1F212B"/>
<path d="M277.5 143.362H209.25C197.7 143.362 188.25 133.912 188.25 122.362V54.1117C188.25 42.5617 197.7 33.1117 209.25 33.1117H277.5C289.05 33.1117 298.5 42.5617 298.5 54.1117V122.362C298.5 133.912 289.05 143.362 277.5 143.362Z" fill="#39C1D7"/>
<path d="M276.625 143.362H208.375C196.293 143.362 186.5 133.569 186.5 121.487V53.2367C186.5 41.1547 196.293 31.3617 208.375 31.3617H276.625C288.707 31.3617 298.5 41.1547 298.5 53.2367V121.487C298.5 133.569 288.707 143.362 276.625 143.362ZM188.25 53.2367V121.487C188.25 132.601 197.261 141.612 208.375 141.612H276.625C287.739 141.612 296.75 132.601 296.75 121.487V53.2367C296.75 42.1224 287.739 33.1117 276.625 33.1117H208.375C197.261 33.1117 188.25 42.1224 188.25 53.2367Z" fill="#1F212B"/>
<path d="M289.75 83.8617V116.522C289.75 126.471 281.609 134.612 271.66 134.612H213.34C203.391 134.612 195.25 126.472 195.25 116.522V58.2014C195.25 48.2527 203.391 40.1117 213.34 40.1117H272.25" fill="#39C1D7"/>
<path d="M272.534 136.362H214.215C203.741 136.362 195.25 127.871 195.25 117.397V59.0764C195.25 48.6027 203.741 40.1117 214.215 40.1117H273.125C273.608 40.1117 274 40.5037 274 40.9867C274 41.4697 273.608 41.8617 273.125 41.8617H214.215C204.707 41.8617 197 49.5687 197 59.0764V117.395C197 126.903 204.709 134.612 214.217 134.612H272.535C282.043 134.612 289.75 126.905 289.75 117.397V84.7367C289.75 84.2537 290.142 83.8617 290.625 83.8617C291.108 83.8617 291.5 84.2537 291.5 84.7367V117.395C291.5 127.871 283.009 136.362 272.534 136.362ZM290.625 79.6249C290.142 79.6249 289.75 79.2329 289.75 78.7499V71.7499C289.75 71.2669 290.142 70.8749 290.625 70.8749C291.108 70.8749 291.5 71.2669 291.5 71.7499V78.7499C291.5 79.2347 291.108 79.6249 290.625 79.6249ZM290.625 69.1249C290.142 69.1249 289.75 68.7329 289.75 68.2499V64.7499C289.75 64.2669 290.142 63.8749 290.625 63.8749C291.108 63.8749 291.5 64.2669 291.5 64.7499V68.2499C291.5 68.7347 291.108 69.1249 290.625 69.1249Z" fill="#1F212B"/>
<path d="M244.036 78.4911C244.036 80.5071 243.596 82.3236 242.714 83.9406C241.832 85.5576 240.603 86.9331 239.028 88.0653C237.453 89.1993 235.595 90.0708 233.453 90.6798C231.311 91.2906 229 91.5933 226.522 91.5933H223.624V108.162H217.828V66.2061H227.972C230.24 66.2061 232.35 66.4581 234.303 66.9621C236.256 67.4661 237.957 68.2343 239.406 69.2598C240.855 70.2906 241.989 71.5698 242.808 73.1028C243.627 74.6376 244.036 76.4331 244.036 78.4911ZM238.241 78.4263C238.241 77.0403 237.967 75.8748 237.421 74.9298C236.875 73.9848 236.13 73.2096 235.185 72.5988C234.24 71.9898 233.127 71.5488 231.846 71.2758C230.565 71.0046 229.21 70.8681 227.782 70.8681H223.624V86.9331H226.711C228.39 86.9331 229.935 86.7441 231.342 86.3661C232.749 85.9881 233.967 85.4315 234.996 84.6966C236.025 83.9615 236.823 83.0691 237.39 82.0191C237.957 80.9691 238.241 79.772 238.241 78.4263Z" fill="#FDFCEE"/>
<path d="M223.624 109.039H217.828C217.345 109.039 216.953 108.647 216.953 108.164V66.2061C216.953 65.7231 217.345 65.3311 217.828 65.3311H227.972C230.304 65.3311 232.509 65.5936 234.522 66.1133C236.566 66.6418 238.38 67.4608 239.912 68.5458C241.467 69.6536 242.701 71.0483 243.58 72.6916C244.463 74.3453 244.911 76.2983 244.911 78.4893C244.911 80.6436 244.43 82.6193 243.482 84.3588C242.54 86.0843 241.214 87.5718 239.539 88.7758C237.889 89.9641 235.922 90.8881 233.692 91.5216C231.484 92.1481 229.072 92.4683 226.522 92.4683H224.499V108.162C224.499 108.647 224.107 109.039 223.624 109.039ZM218.703 107.289H222.749V91.5951C222.749 91.1121 223.141 90.7201 223.624 90.7201H226.522C228.909 90.7201 231.16 90.4243 233.213 89.8398C235.248 89.2606 237.031 88.4258 238.515 87.3566C239.976 86.3048 241.13 85.0151 241.943 83.5223C242.75 82.0418 243.16 80.3513 243.16 78.4911C243.16 76.5888 242.782 74.9158 242.035 73.5158C241.285 72.1123 240.229 70.9223 238.899 69.9738C237.542 69.0131 235.92 68.2833 234.084 67.8108C232.215 67.3278 230.157 67.0828 227.972 67.0828H218.703V107.289ZM226.711 87.8081H223.624C223.141 87.8081 222.749 87.4161 222.749 86.9331V70.8681C222.749 70.3851 223.141 69.9931 223.624 69.9931H227.782C229.261 69.9931 230.691 70.1366 232.028 70.4201C233.409 70.7158 234.628 71.2006 235.659 71.8621C236.718 72.5481 237.567 73.4301 238.179 74.4923C238.8 75.5686 239.116 76.8916 239.116 78.4263C239.116 79.9121 238.793 81.2578 238.16 82.4321C237.532 83.5958 236.637 84.5968 235.503 85.4071C234.392 86.1998 233.067 86.8071 231.568 87.2078C230.092 87.6068 228.458 87.8081 226.711 87.8081ZM224.499 86.0581H226.711C228.304 86.0581 229.786 85.8761 231.116 85.5191C232.413 85.1726 233.547 84.6546 234.488 83.9826C235.404 83.3298 236.121 82.5283 236.622 81.6026C237.117 80.6873 237.367 79.6181 237.367 78.4281C237.367 77.2048 237.131 76.1758 236.665 75.3691C236.186 74.5396 235.547 73.8745 234.712 73.3356C233.862 72.7896 232.836 72.3836 231.666 72.1333C230.448 71.8761 229.142 71.7431 227.784 71.7431H224.501L224.499 86.0581Z" fill="#1F212B"/>
<path d="M267.171 99.533C267.171 100.959 266.867 102.242 266.258 103.374C265.649 104.508 264.809 105.476 263.738 106.272C262.667 107.07 261.396 107.692 259.926 108.131C258.456 108.572 256.86 108.792 255.138 108.792C254.382 108.792 253.584 108.75 252.744 108.666C251.904 108.581 251.064 108.456 250.225 108.288C249.385 108.12 248.576 107.921 247.799 107.69C247.022 107.459 246.36 107.216 245.814 106.965L246.759 102.491C247.851 102.954 249.099 103.373 250.508 103.752C251.915 104.13 253.479 104.318 255.201 104.318C257.006 104.318 258.528 103.992 259.769 103.341C261.008 102.69 261.627 101.651 261.627 100.223C261.627 99.5505 261.459 98.952 261.123 98.4288C260.787 97.9038 260.347 97.4418 259.801 97.0428C259.255 96.642 258.612 96.2763 257.879 95.9385C257.144 95.6043 256.377 95.2683 255.579 94.9323C254.486 94.5123 253.395 94.0398 252.303 93.513C251.21 92.988 250.214 92.358 249.311 91.623C248.406 90.8898 247.673 90.0393 247.106 89.0715C246.539 88.1055 246.255 86.9523 246.255 85.6083C246.255 84.1383 246.56 82.8765 247.169 81.8283C247.778 80.7783 248.576 79.9173 249.563 79.2435C250.548 78.5733 251.694 78.078 252.996 77.763C254.299 77.448 255.642 77.2905 257.028 77.2905C258.624 77.2905 260.178 77.469 261.69 77.826C263.202 78.183 264.567 78.6765 265.785 79.3065L264.84 83.5905C263.622 83.0025 262.352 82.551 261.029 82.236C259.706 81.921 258.372 81.7635 257.028 81.7635C255.558 81.7635 254.319 82.0155 253.312 82.5195C252.304 83.0235 251.799 83.9475 251.799 85.2915C251.799 85.9215 251.978 86.457 252.335 86.898C252.692 87.339 253.154 87.738 253.721 88.0968C254.288 88.4538 254.907 88.781 255.579 89.0733C256.251 89.3673 256.881 89.663 257.469 89.9553C258.015 90.209 258.833 90.566 259.926 91.0263C261.018 91.49 262.1 92.0868 263.171 92.8218C264.242 93.5568 265.177 94.4685 265.975 95.5605C266.773 96.656 267.171 97.979 267.171 99.533Z" fill="#FDFCEE"/>
<path d="M255.138 109.669C254.363 109.669 253.528 109.625 252.657 109.538C251.782 109.449 250.905 109.319 250.053 109.148C249.197 108.976 248.354 108.77 247.549 108.53C246.742 108.29 246.035 108.031 245.447 107.762C245.076 107.59 244.873 107.186 244.957 106.785L245.902 102.31C245.956 102.055 246.121 101.836 246.353 101.715C246.584 101.593 246.859 101.581 247.101 101.686C248.142 102.127 249.363 102.538 250.735 102.907C252.058 103.262 253.562 103.443 255.201 103.443C256.855 103.443 258.255 103.149 259.361 102.568C260.31 102.069 260.751 101.323 260.751 100.223C260.751 99.7168 260.632 99.2845 260.385 98.8995C260.107 98.4673 259.736 98.0788 259.282 97.748C258.787 97.3875 258.192 97.0463 257.511 96.733C256.785 96.404 256.026 96.0715 255.236 95.739C254.144 95.319 253.021 94.8308 251.92 94.3023C250.774 93.7528 249.708 93.079 248.754 92.302C247.776 91.5093 246.968 90.5713 246.348 89.5143C245.704 88.417 245.377 87.1028 245.377 85.6083C245.377 83.9878 245.723 82.5685 246.408 81.389C247.08 80.2305 247.974 79.2663 249.066 78.5208C250.14 77.791 251.393 77.2485 252.786 76.9125C255.705 76.209 258.948 76.2808 261.886 76.9755C263.458 77.3465 264.903 77.8698 266.183 78.5295C266.534 78.7115 266.722 79.1088 266.636 79.4955L265.691 83.7795C265.633 84.0403 265.46 84.2608 265.218 84.3798C264.979 84.497 264.699 84.497 264.455 84.3798C263.3 83.8233 262.077 83.3893 260.821 83.0883C258.266 82.4793 255.418 82.4408 253.698 83.3035C253.257 83.524 252.669 83.9703 252.669 85.2933C252.669 85.7203 252.779 86.065 253.01 86.3503C253.304 86.716 253.7 87.0538 254.183 87.3583C254.715 87.6925 255.301 88.0005 255.924 88.27C256.612 88.571 257.254 88.8738 257.854 89.1713C258.372 89.4128 259.183 89.7645 260.262 90.2213C261.407 90.706 262.551 91.3413 263.661 92.1025C264.811 92.89 265.824 93.8823 266.676 95.0478C267.583 96.292 268.041 97.8005 268.041 99.533C268.041 101.101 267.698 102.531 267.023 103.789C266.354 105.035 265.423 106.106 264.254 106.976C263.104 107.832 261.731 108.504 260.171 108.971C258.633 109.436 256.937 109.669 255.138 109.669ZM246.821 106.442C247.188 106.584 247.599 106.72 248.047 106.853C248.8 107.077 249.582 107.27 250.396 107.433C251.194 107.592 252.015 107.714 252.834 107.798C255.483 108.057 257.683 107.891 259.676 107.296C261.039 106.887 262.231 106.307 263.216 105.572C264.177 104.858 264.942 103.98 265.488 102.963C266.025 101.964 266.296 100.811 266.296 99.5348C266.296 98.161 265.96 97.0305 265.267 96.0803C264.534 95.0758 263.663 94.2218 262.677 93.5463C261.662 92.8515 260.623 92.2723 259.585 91.833C258.481 91.3675 257.653 91.0053 257.102 90.7498C256.505 90.454 255.887 90.1653 255.229 89.8765C254.528 89.572 253.863 89.222 253.255 88.8388C252.61 88.4328 252.071 87.9655 251.656 87.451C251.171 86.8525 250.926 86.1263 250.926 85.295C250.926 83.1828 252.011 82.1958 252.923 81.7408C255.032 80.6838 258.276 80.6855 261.234 81.389C262.254 81.634 263.255 81.9578 264.221 82.3585L264.786 79.7965C263.787 79.3363 262.681 78.9635 261.493 78.6818C258.82 78.0518 255.861 77.9748 253.206 78.6188C252.016 78.9058 250.958 79.3608 250.058 79.9715C249.185 80.5665 248.469 81.3383 247.93 82.2693C247.402 83.1793 247.134 84.3028 247.134 85.61C247.134 86.7895 247.379 87.8063 247.864 88.6323C248.376 89.5073 249.05 90.2843 249.866 90.9458C250.714 91.6388 251.663 92.2355 252.685 92.7273C253.744 93.2383 254.823 93.7073 255.896 94.1185C256.727 94.4685 257.501 94.808 258.243 95.1458C259.032 95.508 259.73 95.9105 260.318 96.341C260.947 96.7995 261.466 97.3438 261.862 97.9598C262.289 98.6283 262.504 99.3895 262.504 100.228C262.504 101.974 261.701 103.322 260.178 104.122C258.819 104.836 257.144 105.198 255.203 105.198C253.409 105.198 251.754 104.998 250.282 104.601C249.241 104.321 248.277 104.017 247.402 103.691L246.821 106.442Z" fill="#1F212B"/>
<path d="M277.5 143.362H209.25C196.685 143.362 186.5 133.177 186.5 120.612V52.3617C186.5 39.7967 196.685 29.6117 209.25 29.6117H277.5C290.065 29.6117 300.25 39.7967 300.25 52.3617V120.612C300.25 133.177 290.065 143.362 277.5 143.362ZM190 52.3617V120.612C190 131.243 198.619 139.862 209.25 139.862H277.5C288.131 139.862 296.75 131.243 296.75 120.612V52.3617C296.75 41.7304 288.131 33.1117 277.5 33.1117H209.25C198.619 33.1117 190 41.7304 190 52.3617Z" fill="#1F212B"/>
<path d="M121.895 143.362H53.6445C42.0945 143.362 32.6445 133.912 32.6445 122.362V54.1117C32.6445 42.5617 42.0945 33.1117 53.6445 33.1117H121.895C133.445 33.1117 142.895 42.5617 142.895 54.1117V122.362C142.895 133.912 133.445 143.362 121.895 143.362Z" fill="#F8E55B"/>
<path d="M121.02 143.362H52.7695C40.6875 143.362 30.8945 133.569 30.8945 121.487V53.2367C30.8945 41.1547 40.6875 31.3617 52.7695 31.3617H121.02C133.102 31.3617 142.895 41.1547 142.895 53.2367V121.487C142.895 133.569 133.1 143.362 121.02 143.362ZM32.6445 53.2367V121.487C32.6445 132.601 41.6553 141.612 52.7695 141.612H121.02C132.134 141.612 141.145 132.601 141.145 121.487V53.2367C141.145 42.1224 132.134 33.1117 121.02 33.1117H52.7695C41.6535 33.1117 32.6445 42.1224 32.6445 53.2367Z" fill="#1F212B"/>
<path d="M116.928 136.362H58.6092C48.1337 136.362 39.6427 127.871 39.6427 117.395V59.0764C39.6427 48.6027 48.1337 40.1117 58.6075 40.1117H117.518C118.001 40.1117 118.393 40.5037 118.393 40.9867C118.393 41.4697 118.001 41.8617 117.518 41.8617H58.6075C49.0997 41.8617 41.3927 49.5687 41.3927 59.0764V117.395C41.3927 126.903 49.1015 134.612 58.6092 134.612H116.928C126.436 134.612 134.143 126.905 134.143 117.397V84.7367C134.143 84.2537 134.535 83.8617 135.018 83.8617C135.501 83.8617 135.893 84.2537 135.893 84.7367V117.395C135.894 127.871 127.402 136.362 116.928 136.362ZM135.019 79.6249C134.536 79.6249 134.144 79.2329 134.144 78.7499V71.7499C134.144 71.2669 134.536 70.8749 135.019 70.8749C135.502 70.8749 135.894 71.2669 135.894 71.7499V78.7499C135.894 79.2347 135.502 79.6249 135.019 79.6249ZM135.019 69.1249C134.536 69.1249 134.144 68.7329 134.144 68.2499V64.7499C134.144 64.2669 134.536 63.8749 135.019 63.8749C135.502 63.8749 135.894 64.2669 135.894 64.7499V68.2499C135.894 68.7347 135.502 69.1249 135.019 69.1249Z" fill="#1F212B"/>
<path d="M101.448 108.889H95.5255L91.6825 98.7455H72.0895L68.3095 108.889H62.3875L79.0825 66.9305H84.7525L101.448 108.889ZM73.8535 94.0835H89.9815L81.9175 72.2225L73.8535 94.0835Z" fill="#FDFCEE"/>
<path d="M101.448 109.764H95.5255C95.1615 109.764 94.836 109.538 94.7065 109.198L91.0788 99.6205H72.6968L69.1303 109.195C69.0025 109.536 68.6753 109.764 68.3095 109.764H62.3875C62.097 109.764 61.8258 109.62 61.663 109.379C61.5003 109.139 61.467 108.833 61.5738 108.565L78.2688 66.6068C78.4018 66.2743 78.7238 66.0555 79.0808 66.0555H84.7508C85.1095 66.0555 85.4315 66.2743 85.5628 66.6068L102.258 108.565C102.366 108.833 102.331 109.139 102.169 109.379C102.009 109.62 101.738 109.764 101.448 109.764ZM96.1293 108.014H100.158L84.1593 67.8055H79.6775L63.679 108.014H67.704L71.2705 98.4393C71.3983 98.098 71.7255 97.8705 72.0913 97.8705H91.6825C92.0465 97.8705 92.372 98.0963 92.5015 98.4358L96.1293 108.014ZM89.9815 94.9585H73.8535C73.5665 94.9585 73.2988 94.8185 73.136 94.584C72.9715 94.3478 72.933 94.0485 73.0328 93.7808L81.0968 71.9198C81.3523 71.232 82.4845 71.232 82.7383 71.9198L90.8023 93.7808C90.902 94.0485 90.8635 94.3478 90.699 94.584C90.5363 94.8185 90.2685 94.9585 89.9815 94.9585ZM75.11 93.2085H88.7268L81.9175 74.7495L75.11 93.2085Z" fill="#1F212B"/>
<path d="M105.43 69.7043C105.43 68.7383 105.756 67.8983 106.407 67.1843C107.058 66.4703 107.929 66.1133 109.021 66.1133C110.113 66.1133 110.985 66.4703 111.636 67.1843C112.287 67.8983 112.612 68.74 112.612 69.7043C112.612 70.6685 112.287 71.5103 111.636 72.2225C110.983 72.9365 110.113 73.2935 109.021 73.2935C107.929 73.2935 107.058 72.9365 106.407 72.2225C105.756 71.5103 105.43 70.6685 105.43 69.7043ZM106.186 108.889V78.6485H111.856V108.889H106.186Z" fill="#FDFCEE"/>
<path d="M111.856 109.764H106.187C105.704 109.764 105.312 109.372 105.312 108.889V78.6485C105.312 78.1655 105.704 77.7735 106.187 77.7735H111.856C112.339 77.7735 112.731 78.1655 112.731 78.6485V108.889C112.731 109.372 112.341 109.764 111.856 109.764ZM107.062 108.014H110.981V79.5235H107.062V108.014ZM109.021 74.1685C107.677 74.1685 106.58 73.7118 105.761 72.8123C104.962 71.939 104.557 70.8925 104.557 69.7043C104.557 68.516 104.963 67.4713 105.763 66.5945C106.582 65.6933 107.679 65.2383 109.023 65.2383C110.365 65.2383 111.463 65.695 112.284 66.5945C113.085 67.4713 113.489 68.5195 113.489 69.7043C113.489 70.8925 113.083 71.9373 112.284 72.8123C111.461 73.7118 110.364 74.1685 109.021 74.1685ZM109.021 66.9865C108.18 66.9865 107.536 67.242 107.054 67.7723C106.55 68.3235 106.305 68.9553 106.305 69.7043C106.305 70.4533 106.55 71.0833 107.053 71.6328C107.534 72.1648 108.178 72.4203 109.021 72.4203C109.863 72.4203 110.507 72.163 110.99 71.6345C111.494 71.0833 111.737 70.4515 111.737 69.7043C111.737 68.957 111.493 68.3253 110.989 67.7723C110.507 67.2438 109.863 66.9865 109.021 66.9865Z" fill="#1F212B"/>
<path d="M121.894 145.112H53.6445C41.0795 145.112 30.8945 134.927 30.8945 122.362V54.1117C30.8945 41.5467 41.0795 31.3617 53.6445 31.3617H121.894C134.459 31.3617 144.644 41.5467 144.644 54.1117V122.362C144.644 134.927 134.458 145.112 121.894 145.112ZM34.3945 54.1117V122.362C34.3945 132.993 43.0133 141.612 53.6445 141.612H121.894C132.526 141.612 141.144 132.993 141.144 122.362V54.1117C141.144 43.4804 132.526 34.8617 121.894 34.8617H53.6445C43.0115 34.8617 34.3945 43.4804 34.3945 54.1117Z" fill="#1F212B"/>
</svg>
