<svg width="39" height="39" viewBox="0 0 39 39" fill="none" xmlns="http://www.w3.org/2000/svg">
<g clip-path="url(#clip0_41_95)">
<path d="M19.5 3.51325C24.7065 3.51325 25.324 3.53275 27.3796 3.627C29.5051 3.7245 31.694 4.20875 33.2426 5.75737C34.8059 7.32062 35.2755 9.48837 35.373 11.6204C35.4673 13.676 35.4867 14.2935 35.4867 19.5C35.4867 24.7065 35.4673 25.324 35.373 27.3796C35.2771 29.4938 34.7815 31.7038 33.2426 33.2426C31.6794 34.8059 29.5133 35.2755 27.3796 35.373C25.324 35.4673 24.7065 35.4867 19.5 35.4867C14.2935 35.4867 13.676 35.4673 11.6204 35.373C9.5225 35.2771 7.28325 34.7701 5.75737 33.2426C4.20225 31.6875 3.7245 29.4986 3.627 27.3796C3.53275 25.324 3.51325 24.7065 3.51325 19.5C3.51325 14.2935 3.53275 13.676 3.627 11.6204C3.72288 9.51437 4.22337 7.29138 5.75737 5.75737C7.31737 4.19737 9.49325 3.7245 11.6204 3.627C13.676 3.53275 14.2935 3.51325 19.5 3.51325ZM19.5 0C14.2041 0 13.5395 0.02275 11.4595 0.117C8.44512 0.255125 5.45187 1.09362 3.27275 3.27275C1.0855 5.46 0.255125 8.44675 0.117 11.4595C0.02275 13.5395 0 14.2041 0 19.5C0 24.7959 0.02275 25.4605 0.117 27.5405C0.255125 30.5516 1.09687 33.553 3.27275 35.7272C5.45837 37.9129 8.45 38.7449 11.4595 38.883C13.5395 38.9772 14.2041 39 19.5 39C24.7959 39 25.4605 38.9772 27.5405 38.883C30.5532 38.7449 33.5498 37.9048 35.7272 35.7272C37.9161 33.5384 38.7449 30.5532 38.883 27.5405C38.9772 25.4605 39 24.7959 39 19.5C39 14.2041 38.9772 13.5395 38.883 11.4595C38.7449 8.44512 37.9048 5.45025 35.7272 3.27275C33.5449 1.09037 30.5451 0.2535 27.5405 0.117C25.4605 0.02275 24.7959 0 19.5 0Z" fill="black"/>
<path d="M19.5 9.48682C13.9701 9.48682 9.48675 13.9702 9.48675 19.5001C9.48675 25.0299 13.9701 29.5133 19.5 29.5133C25.0299 29.5133 29.5133 25.0299 29.5133 19.5001C29.5133 13.9702 25.0299 9.48682 19.5 9.48682ZM19.5 26.0001C15.9104 26.0001 13 23.0897 13 19.5001C13 15.9104 15.9104 13.0001 19.5 13.0001C23.0896 13.0001 26 15.9104 26 19.5001C26 23.0897 23.0896 26.0001 19.5 26.0001Z" fill="black"/>
<path d="M29.9097 11.4302C31.2021 11.4302 32.2498 10.3826 32.2498 9.09024C32.2498 7.7979 31.2021 6.75024 29.9097 6.75024C28.6174 6.75024 27.5697 7.7979 27.5697 9.09024C27.5697 10.3826 28.6174 11.4302 29.9097 11.4302Z" fill="black"/>
</g>
<defs>
<clipPath id="clip0_41_95">
<rect width="39" height="39" fill="white"/>
</clipPath>
</defs>
</svg>
