<svg width="74" height="48" viewBox="0 0 74 48" fill="none" xmlns="http://www.w3.org/2000/svg">
<path d="M46.892 6C44.9692 6.03072 43.0882 6.58203 41.4391 7.59826C39.7901 8.6145 38.4313 10.0597 37.5 11.7878C36.5687 10.0597 35.2099 8.6145 33.5609 7.59826C31.9118 6.58203 30.0308 6.03072 28.108 6C25.0426 6.13679 22.1546 7.51405 20.0748 9.83089C17.995 12.1477 16.8926 15.2158 17.0083 18.3649C17.0083 26.3398 25.1811 35.0496 32.0355 40.9549C33.566 42.2758 35.501 43 37.5 43C39.499 43 41.434 42.2758 42.9645 40.9549C49.8189 35.0496 57.9917 26.3398 57.9917 18.3649C58.1074 15.2158 57.005 12.1477 54.9252 9.83089C52.8454 7.51405 49.9574 6.13679 46.892 6ZM40.7701 38.2715C39.8548 39.0631 38.6966 39.4973 37.5 39.4973C36.3034 39.4973 35.1452 39.0631 34.2299 38.2715C25.456 30.7105 20.4236 23.4564 20.4236 18.3649C20.3068 16.1457 21.0492 13.9692 22.4887 12.31C23.9283 10.6507 25.9482 9.64343 28.108 9.50777C30.2677 9.64343 32.2877 10.6507 33.7272 12.31C35.1667 13.9692 35.9091 16.1457 35.7924 18.3649C35.7924 18.83 35.9723 19.2762 36.2925 19.6051C36.6128 19.934 37.0471 20.1188 37.5 20.1188C37.9529 20.1188 38.3872 19.934 38.7075 19.6051C39.0277 19.2762 39.2076 18.83 39.2076 18.3649C39.0909 16.1457 39.8333 13.9692 41.2728 12.31C42.7123 10.6507 44.7323 9.64343 46.892 9.50777C49.0518 9.64343 51.0717 10.6507 52.5113 12.31C53.9508 13.9692 54.6932 16.1457 54.5764 18.3649C54.5764 23.4564 49.544 30.7105 40.7701 38.2645V38.2715Z" fill="black"/>
</svg>
